<svg width="16" height="16" viewBox="0 0 16 16" fill="none" xmlns="http://www.w3.org/2000/svg">
<path d="M13 3.66667L12.5869 10.3501C12.4813 12.0576 12.4285 12.9114 12.0005 13.5253C11.7889 13.8287 11.5165 14.0849 11.2005 14.2773C10.5614 14.6667 9.706 14.6667 7.99513 14.6667C6.28208 14.6667 5.42553 14.6667 4.78603 14.2766C4.46987 14.0838 4.19733 13.8272 3.98579 13.5232C3.55792 12.9084 3.5063 12.0534 3.40307 10.3435L3 3.66667" fill="#FC6A56"/>
<path d="M14 3.66667H2" stroke="#FC6A56" stroke-width="1.5" stroke-linecap="round"/>
<path d="M10.7051 3.66666L10.2499 2.72781C9.94761 2.10417 9.79648 1.79234 9.53575 1.59787C9.47788 1.55473 9.41668 1.51635 9.35261 1.48313C9.06388 1.33333 8.71735 1.33333 8.02428 1.33333C7.31381 1.33333 6.95855 1.33333 6.66505 1.48941C6.59999 1.524 6.53791 1.56393 6.47945 1.60877C6.21568 1.81113 6.06834 2.13436 5.77366 2.78083L5.36987 3.66666" fill="#FC6A56"/>
<path d="M10.7051 3.66666L10.2499 2.72781C9.94761 2.10417 9.79648 1.79234 9.53575 1.59787C9.47788 1.55473 9.41668 1.51635 9.35261 1.48313C9.06388 1.33333 8.71735 1.33333 8.02428 1.33333C7.31381 1.33333 6.95855 1.33333 6.66505 1.48941C6.59999 1.524 6.53791 1.56393 6.47945 1.60877C6.21568 1.81113 6.06834 2.13436 5.77366 2.78083L5.36987 3.66666" stroke="#FC6A56" stroke-width="1.5" stroke-linecap="round"/>
<path d="M6.33325 11V7" stroke="#E1EDF3" stroke-width="1.5" stroke-linecap="round"/>
<path d="M9.66675 11V7" stroke="#E1EDF3" stroke-width="1.5" stroke-linecap="round"/>
</svg>
