<svg width="16" height="16" viewBox="0 0 16 16" fill="none" xmlns="http://www.w3.org/2000/svg">
<path d="M14.6666 8.00001C14.6666 4.31811 11.6818 1.33334 7.99992 1.33334C4.31802 1.33334 1.33325 4.31811 1.33325 8.00001C1.33325 11.6819 4.31802 14.6667 7.99992 14.6667C11.6818 14.6667 14.6666 11.6819 14.6666 8.00001Z" fill="#649EA0"/>
<path d="M5.33325 10.8333C5.05711 10.8333 4.83325 11.0572 4.83325 11.3333C4.83325 11.6095 5.05711 11.8333 5.33325 11.8333L5.33325 10.8333ZM10.6666 11.8333C10.9427 11.8333 11.1666 11.6095 11.1666 11.3333C11.1666 11.0572 10.9427 10.8333 10.6666 10.8333L10.6666 11.8333ZM8.49992 4.66666C8.49992 4.39053 8.27605 4.16666 7.99992 4.16666C7.72379 4.16666 7.49992 4.39053 7.49992 4.66666L8.49992 4.66666ZM6.69179 7.31819C6.49933 7.12013 6.18277 7.11566 5.98476 7.30813C5.78674 7.5006 5.78225 7.81713 5.97471 8.01513L6.69179 7.31819ZM10.0251 8.01513C10.2176 7.81713 10.2131 7.5006 10.0151 7.30813C9.81705 7.11566 9.50052 7.12013 9.30805 7.31819L10.0251 8.01513ZM5.33325 11.8333L10.6666 11.8333L10.6666 10.8333L5.33325 10.8333L5.33325 11.8333ZM8.49992 9.33333L8.49992 4.66666L7.49992 4.66666L7.49992 9.33333L8.49992 9.33333ZM7.99992 8.83333C8.05539 8.83333 8.07432 8.85113 8.04365 8.83473C8.01692 8.8204 7.97332 8.7912 7.91285 8.73966C7.79145 8.63626 7.64912 8.48399 7.49585 8.3032C7.34452 8.12453 7.19652 7.935 7.05945 7.76046C6.93132 7.59733 6.79652 7.42586 6.69179 7.31819L5.97471 8.01513C6.03385 8.076 6.13093 8.19719 6.27306 8.37813C6.40627 8.54773 6.56696 8.7538 6.73292 8.94966C6.89705 9.14333 7.08079 9.34456 7.26445 9.50097C7.35645 9.57936 7.46019 9.65667 7.57178 9.71639C7.67945 9.77398 7.82772 9.83333 7.99992 9.83333L7.99992 8.83333ZM9.30805 7.31819C9.20332 7.42586 9.06852 7.59733 8.94039 7.76046C8.80332 7.935 8.65532 8.12453 8.50399 8.3032C8.35072 8.484 8.20839 8.63626 8.08699 8.73966C8.02652 8.7912 7.98292 8.8204 7.95619 8.83473C7.92552 8.85113 7.94445 8.83333 7.99992 8.83333L7.99992 9.83333C8.17212 9.83333 8.32039 9.77398 8.42805 9.71639C8.53965 9.65667 8.64339 9.57936 8.73539 9.50097C8.91905 9.34456 9.10279 9.14333 9.26692 8.94966C9.43285 8.7538 9.59359 8.54773 9.72679 8.37813C9.86892 8.19719 9.96599 8.076 10.0251 8.01513L9.30805 7.31819Z" fill="white"/>
</svg>
