<svg width="16" height="16" viewBox="0 0 16 16" fill="none" xmlns="http://www.w3.org/2000/svg">
<path d="M7.99992 14.6667C11.6818 14.6667 14.6666 11.6819 14.6666 8C14.6666 4.3181 11.6818 1.33334 7.99992 1.33334C4.31802 1.33334 1.33325 4.3181 1.33325 8C1.33325 11.6819 4.31802 14.6667 7.99992 14.6667Z" fill="#649EA0"/>
<path d="M5.16675 5.33334C5.16675 5.0572 4.94289 4.83334 4.66675 4.83334C4.39061 4.83334 4.16675 5.0572 4.16675 5.33334H5.16675ZM4.16675 10.6667C4.16675 10.9428 4.39061 11.1667 4.66675 11.1667C4.94289 11.1667 5.16675 10.9428 5.16675 10.6667H4.16675ZM11.3334 8.5C11.6095 8.5 11.8334 8.27614 11.8334 8C11.8334 7.72387 11.6095 7.5 11.3334 7.5V8.5ZM8.68188 6.69187C8.87995 6.49941 8.88441 6.18286 8.69195 5.98484C8.49948 5.78682 8.18295 5.78233 7.98495 5.9748L8.68188 6.69187ZM7.98495 10.0252C8.18295 10.2177 8.49948 10.2132 8.69195 10.0151C8.88441 9.81714 8.87995 9.5006 8.68188 9.30814L7.98495 10.0252ZM4.16675 5.33334V10.6667H5.16675V5.33334H4.16675ZM6.66675 8.5H11.3334V7.5H6.66675V8.5ZM7.16675 8C7.16675 8.05547 7.14895 8.0744 7.16535 8.04374C7.17968 8.017 7.20888 7.9734 7.26041 7.91294C7.36381 7.79154 7.51608 7.6492 7.69688 7.49594C7.87555 7.3446 8.06508 7.1966 8.23961 7.05954C8.40275 6.9314 8.57421 6.7966 8.68188 6.69187L7.98495 5.9748C7.92408 6.03393 7.80288 6.13101 7.62195 6.27314C7.45235 6.40635 7.24628 6.56704 7.05041 6.733C6.85675 6.89714 6.65552 7.08087 6.49911 7.26454C6.42072 7.35654 6.34341 7.46027 6.28369 7.57187C6.22609 7.67954 6.16675 7.8278 6.16675 8H7.16675ZM8.68188 9.30814C8.57421 9.2034 8.40275 9.0686 8.23961 8.94047C8.06508 8.8034 7.87555 8.6554 7.69688 8.50407C7.51608 8.3508 7.36381 8.20847 7.26041 8.08707C7.20888 8.0266 7.17968 7.983 7.16535 7.95627C7.14895 7.9256 7.16675 7.94454 7.16675 8H6.16675C6.16675 8.1722 6.22609 8.32047 6.28369 8.42814C6.34341 8.53974 6.42072 8.64347 6.49911 8.73547C6.65552 8.91914 6.85675 9.10287 7.05041 9.267C7.24628 9.43294 7.45235 9.59367 7.62195 9.72687C7.80288 9.869 7.92408 9.96607 7.98495 10.0252L8.68188 9.30814Z" fill="white"/>
</svg>
