<svg width="16" height="16" viewBox="0 0 16 16" fill="none" xmlns="http://www.w3.org/2000/svg">
<path d="M13.5722 8.90447C12.7792 9.69734 11.2871 9.66654 8.99939 9.66654C7.52752 9.66654 6.33417 8.47141 6.33341 6.99954C6.33341 4.71335 6.30259 3.22044 7.09559 2.42759C7.88852 1.63475 8.23878 1.66685 11.7515 1.66685C12.091 1.6654 12.2619 2.07593 12.0219 2.31597L10.2132 4.12477C9.75412 4.58389 9.75285 5.32823 10.212 5.78729C10.6711 6.24635 11.4155 6.2464 11.8747 5.7874L13.6839 3.97904C13.9239 3.73907 14.3345 3.90989 14.3331 4.24931C14.3331 7.76147 14.3652 8.11167 13.5722 8.90447Z" fill="#2D5981"/>
<path d="M9.00008 9.66667L4.88569 13.7811C4.14932 14.5174 2.95541 14.5174 2.21903 13.7811C1.48265 13.0447 1.48265 11.8507 2.21903 11.1144L6.33341 7" fill="#2D5981"/>
<path d="M3.67272 12.3333H3.66675" stroke="white" stroke-width="2" stroke-linecap="round" stroke-linejoin="round"/>
</svg>
