<svg width="40" height="40" viewBox="0 0 40 40" fill="none" xmlns="http://www.w3.org/2000/svg">
<path opacity="0.4" d="M36.6668 16.25C35.9835 16.25 35.4168 15.6833 35.4168 15V11.6667C35.4168 7.36667 32.6335 4.58334 28.3335 4.58334H11.6668C7.36683 4.58334 4.5835 7.36667 4.5835 11.6667V15C4.5835 15.6833 4.01683 16.25 3.3335 16.25C2.65016 16.25 2.0835 15.6833 2.0835 15V11.6667C2.0835 5.93334 5.9335 2.08334 11.6668 2.08334H28.3335C34.0668 2.08334 37.9168 5.93334 37.9168 11.6667V15C37.9168 15.6833 37.3502 16.25 36.6668 16.25Z" fill="#2D5981"/>
<path opacity="0.4" d="M28.3335 37.9167H11.6668C5.9335 37.9167 2.0835 34.0667 2.0835 28.3333V25C2.0835 24.3167 2.65016 23.75 3.3335 23.75C4.01683 23.75 4.5835 24.3167 4.5835 25V28.3333C4.5835 32.6333 7.36683 35.4167 11.6668 35.4167H28.3335C32.6335 35.4167 35.4168 32.6333 35.4168 28.3333V25C35.4168 24.3167 35.9835 23.75 36.6668 23.75C37.3502 23.75 37.9168 24.3167 37.9168 25V28.3333C37.9168 34.0667 34.0668 37.9167 28.3335 37.9167Z" fill="#2D5981"/>
<path d="M27.3365 13.6833L21.0698 10.2999C20.4031 9.94994 19.6198 9.94994 18.9531 10.2999L12.6865 13.6833C12.2365 13.9333 11.9531 14.4166 11.9531 14.9666C11.9531 15.5166 12.2365 15.9999 12.6865 16.2499L18.9531 19.6333C19.2865 19.8167 19.6531 19.9 20.0198 19.9C20.3865 19.9 20.7531 19.8167 21.0865 19.6333L27.3531 16.2499C27.8031 15.9999 28.0865 15.5166 28.0865 14.9666C28.0698 14.4166 27.7865 13.9333 27.3365 13.6833Z" fill="#2D5981"/>
<path d="M17.8971 20.7832L12.0638 17.8665C11.6138 17.6499 11.0971 17.6666 10.6638 17.9333C10.2304 18.1999 9.98047 18.6499 9.98047 19.1499V24.6666C9.98047 25.6165 10.5138 26.4833 11.3638 26.8999L17.1971 29.8166C17.3971 29.9166 17.6138 29.9665 17.8471 29.9665C18.1138 29.9665 18.3638 29.8999 18.5971 29.7499C19.0305 29.4832 19.2805 29.0332 19.2805 28.5332V23.0166C19.2805 22.0666 18.7638 21.2165 17.8971 20.7832Z" fill="#2D5981"/>
<path d="M29.3198 17.9333C28.8865 17.6666 28.3698 17.6499 27.9198 17.8665L22.0865 20.7832C21.2365 21.2165 20.7031 22.0666 20.7031 23.0166V28.5332C20.7031 29.0332 20.9531 29.4832 21.3865 29.7499C21.6198 29.8999 21.8698 29.9665 22.1365 29.9665C22.3531 29.9665 22.5698 29.9166 22.7865 29.8166L28.6198 26.8999C29.4698 26.4666 30.0031 25.6165 30.0031 24.6666V19.1499C30.0031 18.6499 29.7531 18.1999 29.3198 17.9333Z" fill="#2D5981"/>
</svg>
