<svg width="299" height="219" viewBox="0 0 299 219" fill="none" xmlns="http://www.w3.org/2000/svg">
<path d="M246.632 0H58.9178C50.2784 0 43.2749 7.00355 43.2749 15.6429V203.357C43.2749 211.996 50.2784 219 58.9178 219H246.632C255.271 219 262.275 211.996 262.275 203.357V15.6429C262.275 7.00355 255.271 0 246.632 0Z" fill="#E7F0F4"/>
<path d="M297.339 45.5443V93.0405C297.339 104.539 288.017 113.861 276.518 113.861H258.301" stroke="#D0E1E7" stroke-width="2.35484"/>
<path d="M274.567 113.21V160.706C274.567 172.205 265.245 181.526 253.747 181.526H235.529" stroke="#D0E1E7" stroke-width="2.35484"/>
<g filter="url(#filter0_b_2_3260)">
<path d="M273.653 15.6432H62.4747C58.1551 15.6432 54.6533 19.1449 54.6533 23.4646V62.5717C54.6533 66.8914 58.1551 70.3932 62.4747 70.3932H273.653C277.973 70.3932 281.475 66.8914 281.475 62.5717V23.4646C281.475 19.1449 277.973 15.6432 273.653 15.6432Z" fill="#7AACB7" fill-opacity="0.1"/>
</g>
<path d="M210.516 28.1578H169.845C167.253 28.1578 165.152 30.2589 165.152 32.8507C165.152 35.4425 167.253 37.5435 169.845 37.5435H210.516C213.108 37.5435 215.209 35.4425 215.209 32.8507C215.209 30.2589 213.108 28.1578 210.516 28.1578Z" fill="#9DC2CA"/>
<path d="M210.155 48.4926H141.326C138.734 48.4926 136.633 50.5937 136.633 53.1855C136.633 55.7773 138.734 57.8783 141.326 57.8783H210.155C212.747 57.8783 214.848 55.7773 214.848 53.1855C214.848 50.5937 212.747 48.4926 210.155 48.4926Z" fill="#D0E1E7"/>
<g filter="url(#filter1_b_2_3260)">
<path d="M269.168 20.3373H239.446C235.127 20.3373 231.625 23.8391 231.625 28.1587V57.8802C231.625 62.1998 235.127 65.7016 239.446 65.7016H269.168C273.488 65.7016 276.989 62.1998 276.989 57.8802V28.1587C276.989 23.8391 273.488 20.3373 269.168 20.3373Z" fill="#D0E1E7"/>
</g>
<path d="M250.743 48.1509H253.871L253.906 46.9464C253.906 45.3634 254.904 44.9504 256.315 44.503C257.73 44.1004 258.976 43.2479 259.864 42.0744C260.752 40.9009 261.233 39.4703 261.236 37.9987C261.267 37.1003 261.111 36.2052 260.778 35.3701C260.445 34.535 259.943 33.7781 259.302 33.1473C258.662 32.5165 257.897 32.0255 257.057 31.7055C256.217 31.3854 255.32 31.2432 254.422 31.2879C253.473 31.2673 252.53 31.4395 251.65 31.7943C250.769 32.1491 249.97 32.679 249.301 33.3519C248.632 34.0247 248.106 34.8265 247.756 35.7087C247.405 36.5908 247.238 37.5349 247.264 38.4837H250.499C250.486 37.9598 250.579 37.4388 250.771 36.9511C250.962 36.4634 251.249 36.0189 251.615 35.6436C251.981 35.2683 252.418 34.9698 252.9 34.7655C253.383 34.5613 253.901 34.4554 254.425 34.4541C254.898 34.4267 255.371 34.5013 255.812 34.6729C256.253 34.8446 256.652 35.1092 256.982 35.4487C257.311 35.7883 257.564 36.1948 257.723 36.6408C257.881 37.0867 257.942 37.5616 257.901 38.0331C257.88 38.7963 257.615 39.5327 257.144 40.1337C256.673 40.7346 256.021 41.1685 255.285 41.3713L254.15 41.8218C253.038 42.0897 252.067 42.7654 251.43 43.7151C250.792 44.6647 250.535 45.8191 250.708 46.9496L250.743 48.1509ZM252.291 55.5876C252.598 55.5984 252.903 55.5478 253.19 55.4386C253.476 55.3294 253.738 55.1639 253.959 54.9519C254.18 54.7398 254.357 54.4855 254.479 54.2041C254.6 53.9226 254.664 53.6196 254.666 53.3131C254.663 53.0068 254.599 52.7042 254.478 52.4231C254.356 52.142 254.179 51.8881 253.958 51.6763C253.737 51.4646 253.475 51.2994 253.189 51.1904C252.903 51.0814 252.597 51.0309 252.291 51.0417C251.985 51.0309 251.68 51.0814 251.394 51.1904C251.108 51.2994 250.846 51.4646 250.625 51.6763C250.403 51.8881 250.227 52.142 250.105 52.4231C249.984 52.7042 249.92 53.0068 249.917 53.3131C249.919 53.6196 249.983 53.9226 250.104 54.2041C250.226 54.4855 250.402 54.7398 250.624 54.9519C250.845 55.1639 251.107 55.3294 251.393 55.4386C251.68 55.5478 251.985 55.5984 252.291 55.5876Z" fill="white"/>
<g filter="url(#filter2_b_2_3260)">
<path d="M28.6417 82.9067H239.82C241.895 82.9067 243.884 83.7307 245.351 85.1975C246.818 86.6643 247.642 88.6537 247.642 90.7281V129.835C247.642 131.91 246.818 133.899 245.351 135.366C243.884 136.833 241.895 137.657 239.82 137.657H28.6417C26.5674 137.657 24.578 136.833 23.1112 135.366C21.6444 133.899 20.8203 131.91 20.8203 129.835V90.7281C20.8203 88.6537 21.6444 86.6643 23.1112 85.1975C24.578 83.7307 26.5674 82.9067 28.6417 82.9067V82.9067Z" fill="#7AACB7" fill-opacity="0.1"/>
</g>
<path d="M176.185 93.6909H135.513C132.921 93.6909 130.82 95.792 130.82 98.3838C130.82 100.976 132.921 103.077 135.513 103.077H176.185C178.776 103.077 180.877 100.976 180.877 98.3838C180.877 95.792 178.776 93.6909 176.185 93.6909Z" fill="#9DC2CA"/>
<path d="M175.422 115.756H106.593C104.001 115.756 101.9 117.857 101.9 120.449C101.9 123.041 104.001 125.142 106.593 125.142H175.422C178.014 125.142 180.115 123.041 180.115 120.449C180.115 117.857 178.014 115.756 175.422 115.756Z" fill="#D0E1E7"/>
<g filter="url(#filter3_b_2_3260)">
<path d="M234.435 87.6016H204.714C200.394 87.6016 196.893 91.1033 196.893 95.423V125.144C196.893 129.464 200.394 132.966 204.714 132.966H234.435C238.755 132.966 242.257 129.464 242.257 125.144V95.423C242.257 91.1033 238.755 87.6016 234.435 87.6016Z" fill="#D0E1E7"/>
</g>
<path d="M224.165 113.652L226.678 113.652C227.262 113.652 227.554 113.652 227.794 113.588C228.444 113.413 228.952 112.905 229.127 112.255C229.191 112.015 229.191 111.723 229.191 111.139C229.191 110.555 229.191 110.263 229.127 110.023C228.952 109.372 228.444 108.864 227.794 108.69C227.554 108.626 227.262 108.626 226.678 108.626L224.165 108.626C222.98 108.626 222.388 108.626 222.02 108.258C221.652 107.89 221.652 107.298 221.652 106.113L221.652 103.6C221.652 103.016 221.652 102.724 221.588 102.484C221.413 101.834 220.905 101.326 220.255 101.151C220.015 101.087 219.723 101.087 219.139 101.087C218.555 101.087 218.263 101.087 218.023 101.151C217.372 101.326 216.864 101.834 216.69 102.484C216.626 102.724 216.626 103.016 216.626 103.6L216.626 106.113C216.626 107.298 216.626 107.89 216.258 108.258C215.89 108.626 215.298 108.626 214.113 108.626L211.6 108.626C211.016 108.626 210.724 108.626 210.484 108.69C209.834 108.864 209.326 109.372 209.151 110.023C209.087 110.263 209.087 110.555 209.087 111.139C209.087 111.723 209.087 112.015 209.151 112.255C209.326 112.905 209.834 113.413 210.484 113.588C210.724 113.652 211.016 113.652 211.6 113.652L214.113 113.652C215.298 113.652 215.89 113.652 216.258 114.02C216.626 114.388 216.626 114.98 216.626 116.165L216.626 118.678C216.626 119.262 216.626 119.554 216.69 119.794C216.864 120.444 217.372 120.952 218.023 121.127C218.263 121.191 218.555 121.191 219.139 121.191C219.723 121.191 220.015 121.191 220.255 121.127C220.905 120.952 221.413 120.444 221.588 119.794C221.652 119.554 221.652 119.262 221.652 118.678L221.652 116.165C221.652 114.98 221.652 114.388 222.02 114.02C222.388 113.652 222.98 113.652 224.165 113.652Z" fill="white"/>
<g filter="url(#filter4_b_2_3260)">
<path d="M7.82143 150.172H219C221.074 150.172 223.064 150.996 224.531 152.462C225.997 153.929 226.821 155.919 226.821 157.993V197.1C226.821 199.175 225.997 201.164 224.531 202.631C223.064 204.098 221.074 204.922 219 204.922H7.82143C5.74706 204.922 3.75765 204.098 2.29084 202.631C0.824041 201.164 0 199.175 0 197.1L0 157.993C0 155.919 0.824041 153.929 2.29084 152.462C3.75765 150.996 5.74706 150.172 7.82143 150.172V150.172Z" fill="#7AACB7" fill-opacity="0.1"/>
</g>
<path d="M155.862 162.686H115.191C112.599 162.686 110.498 164.787 110.498 167.379C110.498 169.97 112.599 172.071 115.191 172.071H155.862C158.454 172.071 160.555 169.97 160.555 167.379C160.555 164.787 158.454 162.686 155.862 162.686Z" fill="#9DC2CA"/>
<path d="M155.501 183.021H86.6723C84.0806 183.021 81.9795 185.122 81.9795 187.713C81.9795 190.305 84.0806 192.406 86.6723 192.406H155.501C158.093 192.406 160.194 190.305 160.194 187.713C160.194 185.122 158.093 183.021 155.501 183.021Z" fill="#D0E1E7"/>
<g filter="url(#filter5_b_2_3260)">
<path d="M214.515 154.865H184.794C180.474 154.865 176.972 158.367 176.972 162.687V192.408C176.972 196.728 180.474 200.23 184.794 200.23H214.515C218.835 200.23 222.336 196.728 222.336 192.408V162.687C222.336 158.367 218.835 154.865 214.515 154.865Z" fill="#D0E1E7"/>
</g>
<path d="M207.359 179.357C206.169 180.546 203.931 180.5 200.5 180.5C198.292 180.5 196.502 178.707 196.501 176.499C196.501 173.07 196.454 170.831 197.644 169.641C198.833 168.452 199.359 168.5 204.628 168.5C205.137 168.498 205.393 169.114 205.033 169.474L202.32 172.187C201.632 172.876 201.63 173.992 202.319 174.681C203.007 175.369 204.124 175.37 204.813 174.681L207.526 171.969C207.886 171.609 208.502 171.865 208.5 172.374C208.5 177.642 208.548 178.167 207.359 179.357Z" fill="white"/>
<path d="M200.5 180.5L194.329 186.672C193.224 187.776 191.433 187.776 190.329 186.672C189.224 185.567 189.224 183.776 190.329 182.672L196.5 176.5" fill="white"/>
<path d="M192.509 184.5H192.5" stroke="#D0E1E7" stroke-width="2" stroke-linecap="round" stroke-linejoin="round"/>
<defs>
<filter id="filter0_b_2_3260" x="48.3738" y="9.36359" width="239.38" height="67.3091" filterUnits="userSpaceOnUse" color-interpolation-filters="sRGB">
<feFlood flood-opacity="0" result="BackgroundImageFix"/>
<feGaussianBlur in="BackgroundImageFix" stdDeviation="3.13979"/>
<feComposite in2="SourceAlpha" operator="in" result="effect1_backgroundBlur_2_3260"/>
<feBlend mode="normal" in="SourceGraphic" in2="effect1_backgroundBlur_2_3260" result="shape"/>
</filter>
<filter id="filter1_b_2_3260" x="219.066" y="7.77817" width="70.4825" height="70.4826" filterUnits="userSpaceOnUse" color-interpolation-filters="sRGB">
<feFlood flood-opacity="0" result="BackgroundImageFix"/>
<feGaussianBlur in="BackgroundImageFix" stdDeviation="6.27957"/>
<feComposite in2="SourceAlpha" operator="in" result="effect1_backgroundBlur_2_3260"/>
<feBlend mode="normal" in="SourceGraphic" in2="effect1_backgroundBlur_2_3260" result="shape"/>
</filter>
<filter id="filter2_b_2_3260" x="14.5407" y="76.6271" width="239.38" height="67.3091" filterUnits="userSpaceOnUse" color-interpolation-filters="sRGB">
<feFlood flood-opacity="0" result="BackgroundImageFix"/>
<feGaussianBlur in="BackgroundImageFix" stdDeviation="3.13979"/>
<feComposite in2="SourceAlpha" operator="in" result="effect1_backgroundBlur_2_3260"/>
<feBlend mode="normal" in="SourceGraphic" in2="effect1_backgroundBlur_2_3260" result="shape"/>
</filter>
<filter id="filter3_b_2_3260" x="184.333" y="75.0424" width="70.4825" height="70.4826" filterUnits="userSpaceOnUse" color-interpolation-filters="sRGB">
<feFlood flood-opacity="0" result="BackgroundImageFix"/>
<feGaussianBlur in="BackgroundImageFix" stdDeviation="6.27957"/>
<feComposite in2="SourceAlpha" operator="in" result="effect1_backgroundBlur_2_3260"/>
<feBlend mode="normal" in="SourceGraphic" in2="effect1_backgroundBlur_2_3260" result="shape"/>
</filter>
<filter id="filter4_b_2_3260" x="-6.27957" y="143.892" width="239.38" height="67.3091" filterUnits="userSpaceOnUse" color-interpolation-filters="sRGB">
<feFlood flood-opacity="0" result="BackgroundImageFix"/>
<feGaussianBlur in="BackgroundImageFix" stdDeviation="3.13979"/>
<feComposite in2="SourceAlpha" operator="in" result="effect1_backgroundBlur_2_3260"/>
<feBlend mode="normal" in="SourceGraphic" in2="effect1_backgroundBlur_2_3260" result="shape"/>
</filter>
<filter id="filter5_b_2_3260" x="164.413" y="142.306" width="70.4825" height="70.4826" filterUnits="userSpaceOnUse" color-interpolation-filters="sRGB">
<feFlood flood-opacity="0" result="BackgroundImageFix"/>
<feGaussianBlur in="BackgroundImageFix" stdDeviation="6.27957"/>
<feComposite in2="SourceAlpha" operator="in" result="effect1_backgroundBlur_2_3260"/>
<feBlend mode="normal" in="SourceGraphic" in2="effect1_backgroundBlur_2_3260" result="shape"/>
</filter>
</defs>
</svg>
